<svg width="40" height="40" fill="none" xmlns="http://www.w3.org/2000/svg"><g clip-path="url(#a)"><path d="M39.935 17.177v-.004L34.227 3.617a3.645 3.645 0 0 0-1.472-1.689.82.82 0 0 0-.282-.198c-.043-.018-.09-.017-.136-.027a3.636 3.636 0 0 0-2.435-.208L20.835 3.91V.833a.834.834 0 0 0-1.667 0v3.522L9.63 6.895a5.868 5.868 0 0 0-3.88 3.382L.065 23.845C.022 23.948 0 25.488 0 25.488c0 4.05 3 7.484 6.832 7.815.228.02.453.03.678.03a7.413 7.413 0 0 0 5.057-1.971A7.52 7.52 0 0 0 15 25.833s-.025-1.898-.072-2.005L8.48 9.32a4.16 4.16 0 0 1 1.578-.815l9.109-2.427v32.255H7.5A.834.834 0 0 0 7.5 40h25a.834.834 0 0 0 0-1.667H20.833V5.637l9.497-2.529c.228-.061.458-.073.682-.053l-5.947 14.123c-.043.102-.065 1.644-.065 1.644 0 4.05 3 7.483 6.832 7.815.228.02.453.03.678.03a7.413 7.413 0 0 0 5.057-1.972A7.52 7.52 0 0 0 40 19.167s-.02-1.884-.065-1.99Zm-26.602 8.656a5.85 5.85 0 0 1-1.893 4.302 5.78 5.78 0 0 1-4.465 1.51c-2.977-.258-5.31-2.963-5.31-6.157v-.486h11.667v.833l.001-.002Zm-.448-2.5H2.087l5.2-12.411.04-.094 5.558 12.505ZM32.458 3.912c.08.115.175.218.23.351l5.222 12.402H27.087l5.37-12.755.001.002Zm5.875 15.255c0 1.631-.69 3.198-1.893 4.301a5.77 5.77 0 0 1-4.465 1.51c-2.977-.258-5.31-2.963-5.31-6.156v-.487h11.667v.833l.001-.001Z" fill="#fff"/></g><defs><clipPath id="a"><path fill="#fff" d="M0 0h40v40H0z"/></clipPath></defs></svg>