<svg width="40" height="40" fill="none" xmlns="http://www.w3.org/2000/svg"><g clip-path="url(#a)"><path d="M40 20.834a4.171 4.171 0 0 0-4.167-4.167h-1.231L26.55 5.117a4.167 4.167 0 0 0-3.418-1.784H9.802a4.185 4.185 0 0 0-3.897 2.69l-4.398 11.6h.003A4.167 4.167 0 0 0 0 20.834V30h3.333v1.667c0 2.756 2.244 5 5 5 2.757 0 5-2.244 5-5V30h13.334v1.667c0 2.756 2.243 5 5 5 2.756 0 5-2.244 5-5V30H40v-9.166ZM25.182 6.072l7.386 10.595H16.667V5h6.465c.816 0 1.583.4 2.05 1.072Zm-17.719.542A2.51 2.51 0 0 1 9.8 5h5.198v11.667H4.167c-.176 0-.352.012-.527.035L7.463 6.613Zm4.202 25.053A3.337 3.337 0 0 1 8.332 35a3.337 3.337 0 0 1-3.334-3.333V30h6.669l-.002 1.667Zm23.333 0A3.337 3.337 0 0 1 31.665 35a3.337 3.337 0 0 1-3.333-3.333V30h6.666v1.667Zm3.334-3.334H1.667v-7.5c0-1.378 1.121-2.5 2.5-2.5h31.666c1.379 0 2.5 1.122 2.5 2.5l-.001 7.5Z" fill="#fff"/></g><defs><clipPath id="a"><path fill="#fff" d="M0 0h40v40H0z"/></clipPath></defs></svg>