<svg width="23" height="40" fill="none" xmlns="http://www.w3.org/2000/svg"><path d="M22.857 14.286v-1.429c0-3.937-3.203-7.143-7.143-7.143h-2.857V0H10v5.714H7.143C3.203 5.714 0 8.92 0 12.857a7.892 7.892 0 0 0 6.669 7.826l9.068 1.457A5.046 5.046 0 0 1 20 27.143a4.291 4.291 0 0 1-4.286 4.286H7.143a4.291 4.291 0 0 1-4.286-4.286v-1.429H0v1.429a7.148 7.148 0 0 0 7.143 7.143H10V40h2.857v-5.714h2.857a7.15 7.15 0 0 0 7.143-7.143 7.892 7.892 0 0 0-6.668-7.826L7.12 17.86a5.046 5.046 0 0 1-4.263-5.003 4.29 4.29 0 0 1 4.286-4.286h8.571A4.291 4.291 0 0 1 20 12.857v1.429h2.857Z" fill="#fff"/></svg>