<svg width="46" height="37" fill="none" xmlns="http://www.w3.org/2000/svg"><path d="M4.282 29.148v-.063l-.056-.027C1.79 27.874.1 25.335.1 22.402v-3c0-2.396.612-4.751 1.777-6.833L6.18 4.887C7.836 1.934 10.933.1 14.262.1h17.476a9.193 9.193 0 0 1 4.67 1.287 9.436 9.436 0 0 1 3.412 3.5l4.303 7.683a14.02 14.02 0 0 1 1.777 6.833v3a7.492 7.492 0 0 1-1.12 3.936 7.28 7.28 0 0 1-3.005 2.72l-.057.026v1.851c0 2.888-2.3 5.233-5.127 5.233-2.826 0-5.127-2.345-5.127-5.233v-1.167H14.536v1.167c0 2.888-2.3 5.233-5.127 5.233-2.826 0-5.127-2.345-5.127-5.233v-1.788ZM7.822 5.85l-4.3 7.682c-.25.443-.466.9-.656 1.368l-.056.138h40.38l-.056-.138c-.19-.469-.409-.927-.656-1.368L38.175 5.85c-1.316-2.352-3.782-3.815-6.44-3.815H14.263A7.317 7.317 0 0 0 10.54 3.06a7.506 7.506 0 0 0-2.717 2.79ZM6.288 29.693l-.114-.016v1.259c0 1.817 1.45 3.3 3.236 3.3 1.786 0 3.236-1.483 3.236-3.3v-1.167H7.319c-.35 0-.694-.027-1.031-.076Zm27.168.076h-.1v1.167c0 1.817 1.45 3.3 3.236 3.3 1.786 0 3.236-1.483 3.236-3.3v-1.26l-.115.018a6.94 6.94 0 0 1-1.03.075h-5.227ZM7.318 27.836h31.364c2.94 0 5.327-2.438 5.327-5.434v-3c0-.793-.08-1.58-.234-2.353l-.016-.08H37.537V20.269c0 .257-.1.503-.278.684a.935.935 0 0 1-1.336 0 .977.977 0 0 1-.278-.684V16.969H10.355V20.269c0 .257-.1.503-.278.684a.935.935 0 0 1-1.336 0 .978.978 0 0 1-.277-.684V16.969H2.24l-.016.08a12.051 12.051 0 0 0-.234 2.354v3a5.493 5.493 0 0 0 1.56 3.84 5.28 5.28 0 0 0 3.767 1.593Z" fill="#fff" stroke="#0D0D0D" stroke-width=".2"/></svg>