<svg width="99" height="48" fill="none" xmlns="http://www.w3.org/2000/svg"><g clip-path="url(#a)"><path d="M49.157 46.006c26.105 0 47.267-9.876 47.267-22.058 0-12.183-21.162-22.059-47.267-22.059-26.105 0-47.268 9.876-47.268 22.059 0 12.182 21.163 22.058 47.268 22.058Z" fill="#0D0D0D"/><path d="M97.197 18.744a17.387 17.387 0 0 0-3.086-4.65c-2.55-2.815-6.16-5.324-10.731-7.457-4.478-2.09-9.68-3.728-15.458-4.867a100.36 100.36 0 0 0-37.528 0c-5.779 1.139-10.98 2.777-15.458 4.867-4.57 2.133-8.182 4.642-10.731 7.456a17.322 17.322 0 0 0-3.084 4.651 12.644 12.644 0 0 0 0 10.41 17.322 17.322 0 0 0 3.084 4.65c2.55 2.815 6.16 5.323 10.73 7.454 4.48 2.092 9.68 3.729 15.459 4.87a100.357 100.357 0 0 0 37.528 0c5.779-1.15 10.98-2.778 15.458-4.87 4.57-2.13 8.181-4.639 10.731-7.454a17.386 17.386 0 0 0 3.086-4.65 12.657 12.657 0 0 0 0-10.41Zm-.77 5.204c0 12.183-21.173 22.058-47.268 22.058-26.095 0-47.267-9.875-47.267-22.058 0-12.184 21.172-22.056 47.267-22.056 26.095 0 47.267 9.875 47.267 22.056Z" fill="url(#b)"/><path d="M29.156 27.51h-7.627v3.726h-4.488v-7.451h12.55c1.394 0 2.2-.675 2.2-1.678 0-1.004-.806-1.655-2.2-1.655H17.04l2.992-3.79h9.15c4.511 0 7.146 2.22 7.146 5.468 0 3.247-2.642 5.38-7.173 5.38Zm18.288-5.417c1.285 2.244 1.842 3.332 2.352 4.356.48-1.024 1.045-2.09 2.332-4.335l2.331-4.143c.522-.936 1.307-1.546 2.483-1.546 1.132 0 2.136.653 2.532 2.004l3.682 12.81h-4.488l-1.38-5.077c-.46-1.655-.762-2.83-1.002-4.01-.478 1.025-1.024 2.136-2.025 4.033l-1.96 3.659c-.765 1.438-1.506 1.634-2.594 1.634-1.089 0-1.841-.196-2.592-1.634l-1.96-3.682c-1.068-2.005-1.59-3.029-2.049-4.01-.218 1.151-.545 2.376-.98 4.01l-1.38 5.076h-4.422l3.768-12.809c.393-1.35 1.417-2.004 2.55-2.004 1.132 0 1.94.587 2.462 1.546l2.34 4.122Zm29.435 5.424h-7.627v3.726h-4.488v-7.452h12.55c1.394 0 2.2-.674 2.2-1.677 0-1.004-.806-1.655-2.2-1.655h-12.55l2.992-3.79h9.146c4.51 0 7.145 2.22 7.145 5.468 0 3.247-2.646 5.373-7.177 5.373l.009.007Z" fill="url(#c)"/></g><defs><linearGradient id="b" x1="0" y1="23.948" x2="98.316" y2="23.948" gradientUnits="userSpaceOnUse"><stop stop-color="#EDEDED"/><stop offset="1" stop-color="#A2A0A1"/></linearGradient><linearGradient id="c" x1="17.041" y1="23.948" x2="84.036" y2="23.948" gradientUnits="userSpaceOnUse"><stop stop-color="#EDEDED"/><stop offset="1" stop-color="#A2A0A1"/></linearGradient><clipPath id="a"><path fill="#fff" d="M0 0h98.316v47.898H0z"/></clipPath></defs></svg>