<svg width="23" height="23" fill="none" xmlns="http://www.w3.org/2000/svg"><path d="M19.01 3.926a10.582 10.582 0 0 0-7.5-3.108C5.644.818.892 5.554.892 11.4c0 1.85.52 3.7 1.411 5.254L.818 22.129l5.643-1.48a10.856 10.856 0 0 0 5.05 1.258c5.865 0 10.617-4.736 10.617-10.582-.074-2.737-1.114-5.401-3.118-7.399Zm-2.376 11.247c-.223.592-1.263 1.184-1.782 1.258a4.164 4.164 0 0 1-1.634-.074c-.371-.148-.891-.296-1.485-.592-2.673-1.11-4.38-3.774-4.53-3.996-.148-.148-1.113-1.405-1.113-2.737s.668-1.924.89-2.22c.224-.296.52-.296.743-.296h.52c.149 0 .371-.074.594.444.223.518.743 1.85.817 1.924a.47.47 0 0 1 0 .444 1.547 1.547 0 0 1-.297.444c-.149.148-.297.37-.371.444-.149.148-.297.296-.149.518.149.296.668 1.11 1.485 1.85 1.04.887 1.857 1.183 2.154 1.331.296.148.445.074.593-.074.149-.148.669-.74.817-1.036.149-.296.372-.222.594-.148.223.074 1.56.74 1.782.888.297.148.446.222.52.296.074.222.074.74-.148 1.332Z" fill="#fff"/></svg>